<svg xmlns="http://www.w3.org/2000/svg" viewBox="0 0 1200 700">
<defs>
<linearGradient id="bg" x1="0" y1="0" x2="1" y2="1"><stop stop-color="#562d76"/><stop offset=".62" stop-color="#aa4aa2"/><stop offset="1" stop-color="#e4007c"/></linearGradient>
<radialGradient id="glow"><stop stop-color="#fff" stop-opacity=".35"/><stop offset="1" stop-color="#fff" stop-opacity="0"/></radialGradient>
</defs>
<rect width="1200" height="700" rx="44" fill="url(#bg)"/>
<circle cx="990" cy="100" r="250" fill="url(#glow)"/><circle cx="140" cy="640" r="230" fill="url(#glow)"/>
<g opacity=".12" stroke="#fff"><path d="M0 70H1200"/><path d="M0 140H1200"/><path d="M0 210H1200"/><path d="M0 280H1200"/><path d="M0 350H1200"/><path d="M0 420H1200"/><path d="M0 490H1200"/><path d="M0 560H1200"/><path d="M0 630H1200"/><path d="M70 0V700"/><path d="M140 0V700"/><path d="M210 0V700"/><path d="M280 0V700"/><path d="M350 0V700"/><path d="M420 0V700"/><path d="M490 0V700"/><path d="M560 0V700"/><path d="M630 0V700"/><path d="M700 0V700"/><path d="M770 0V700"/><path d="M840 0V700"/><path d="M910 0V700"/><path d="M980 0V700"/><path d="M1050 0V700"/><path d="M1120 0V700"/><path d="M1190 0V700"/></g>
<g transform="translate(710 245)" fill="none" stroke="#fff" stroke-linecap="round">
          <path d="M0 40c100-100 300-100 400 0" stroke-width="15" stroke-opacity=".45"/>
          <path d="M65 112c65-65 205-65 270 0" stroke-width="15" stroke-opacity=".65"/>
          <path d="M135 184c30-30 100-30 130 0" stroke-width="15" stroke-opacity=".85"/>
          <circle cx="200" cy="242" r="15" fill="#fff" stroke="none"/>
        </g>
<text x="72" y="120" fill="#fff" font-family="Arial, sans-serif" font-size="60" font-weight="700">Giáo dục</text>
<text x="76" y="172" fill="#fff" fill-opacity=".83" font-family="Arial, sans-serif" font-size="27">Thiết bị • Wi‑Fi • Lớp học số</text>
</svg>